<svg width="20" height="21" viewBox="0 0 20 21" fill="none" xmlns="http://www.w3.org/2000/svg">
  <path d="M13.0932 1V4.63636" stroke="#1D2452" stroke-width="1.2" stroke-linecap="round"
    stroke-linejoin="round" />
  <path d="M5.81783 1V4.63636" stroke="#1D2452" stroke-width="1.2" stroke-linecap="round"
    stroke-linejoin="round" />
  <path d="M1.27344 7.36554H17.6371" stroke="#1D2452" stroke-width="1.2" stroke-linecap="round"
    stroke-linejoin="round" />
  <path fill-rule="evenodd" clip-rule="evenodd"
    d="M15.8189 2.8192H3.09162C2.08707 2.8192 1.27344 3.63283 1.27344 4.63738V16.4556C1.27344 17.4601 2.08707 18.2737 3.09162 18.2737H15.8189C16.8234 18.2737 17.6371 17.4601 17.6371 16.4556V4.63738C17.6371 3.63283 16.8234 2.8192 15.8189 2.8192Z"
    stroke="#1D2452" stroke-width="1.2" stroke-linecap="round" stroke-linejoin="round" />
  <path
    d="M9.46731 10.7556C9.34186 10.7556 9.24004 10.8574 9.24095 10.9829C9.24095 11.1083 9.34277 11.2101 9.46822 11.2101C9.59367 11.2101 9.69549 11.1083 9.69549 10.9829C9.69549 10.8574 9.59367 10.7556 9.46731 10.7556"
    stroke="#1D2452" stroke-width="1.2" stroke-linecap="round" stroke-linejoin="round" />
  <path
    d="M4.92239 10.7556C4.79693 10.7556 4.69512 10.8574 4.69603 10.9829C4.69603 11.1083 4.79784 11.2101 4.9233 11.2101C5.04875 11.2101 5.15057 11.1083 5.15057 10.9829C5.15057 10.8574 5.04875 10.7556 4.92239 10.7556"
    stroke="#1D2452" stroke-width="1.2" stroke-linecap="round" stroke-linejoin="round" />
  <path
    d="M14.0122 10.7557C13.8868 10.7557 13.785 10.8575 13.7859 10.983C13.7859 11.1085 13.8877 11.2103 14.0131 11.2103C14.1386 11.2103 14.2404 11.1085 14.2404 10.983C14.2404 10.8575 14.1386 10.7557 14.0122 10.7557"
    stroke="#1D2452" stroke-width="1.2" stroke-linecap="round" stroke-linejoin="round" />
  <path
    d="M14.0122 14.3913C13.8868 14.3913 13.785 14.4932 13.7859 14.6186C13.7859 14.7441 13.8877 14.8459 14.0131 14.8459C14.1386 14.8459 14.2404 14.7441 14.2404 14.6186C14.2404 14.4932 14.1386 14.3913 14.0122 14.3913"
    stroke="#1D2452" stroke-width="1.2" stroke-linecap="round" stroke-linejoin="round" />
  <path
    d="M4.92239 14.3913C4.79693 14.3913 4.69512 14.4932 4.69603 14.6186C4.69603 14.7441 4.79784 14.8459 4.9233 14.8459C5.04875 14.8459 5.15057 14.7441 5.15057 14.6186C5.15057 14.4932 5.04875 14.3913 4.92239 14.3913"
    stroke="#1D2452" stroke-width="1.2" stroke-linecap="round" stroke-linejoin="round" />
  <path
    d="M9.46731 14.3913C9.34186 14.3913 9.24004 14.4932 9.24095 14.6186C9.24095 14.7441 9.34277 14.8459 9.46822 14.8459C9.59367 14.8459 9.69549 14.7441 9.69549 14.6186C9.69549 14.4932 9.59367 14.3913 9.46731 14.3913"
    stroke="#1D2452" stroke-width="1.2" stroke-linecap="round" stroke-linejoin="round" />
</svg>