<svg width="20" height="20" viewBox="0 0 20 20" fill="none" xmlns="http://www.w3.org/2000/svg">
  <path fill-rule="evenodd" clip-rule="evenodd"
    d="M10 1.75C5.44321 1.75 1.75 5.44321 1.75 10C1.75 14.5568 5.44321 18.25 10 18.25C14.5568 18.25 18.25 14.5568 18.25 10C18.25 5.44321 14.5568 1.75 10 1.75ZM0.25 10C0.25 4.61479 4.61479 0.25 10 0.25C15.3852 0.25 19.75 4.61479 19.75 10C19.75 15.3852 15.3852 19.75 10 19.75C4.61479 19.75 0.25 15.3852 0.25 10ZM6.63967 6.63967C6.93256 6.34678 7.40744 6.34678 7.70033 6.63967L10 8.93934L12.2997 6.63967C12.5926 6.34678 13.0674 6.34678 13.3603 6.63967C13.6532 6.93256 13.6532 7.40744 13.3603 7.70033L11.0607 10L13.3603 12.2997C13.6532 12.5926 13.6532 13.0674 13.3603 13.3603C13.0674 13.6532 12.5926 13.6532 12.2997 13.3603L10 11.0607L7.70033 13.3603C7.40744 13.6532 6.93256 13.6532 6.63967 13.3603C6.34678 13.0674 6.34678 12.5926 6.63967 12.2997L8.93934 10L6.63967 7.70033C6.34678 7.40744 6.34678 6.93256 6.63967 6.63967Z"
    fill="#1D2452" fill-opacity="0.3" />
</svg>