<svg width="8" height="9" viewBox="0 0 8 9" fill="none" xmlns="http://www.w3.org/2000/svg">
  <path
    d="M0.21967 1.13967C0.512563 0.846775 0.987437 0.846775 1.28033 1.13967L3.58 3.43934L5.87967 1.13967C6.17256 0.846775 6.64744 0.846775 6.94033 1.13967C7.23322 1.43256 7.23322 1.90743 6.94033 2.20033L4.64066 4.5L6.94033 6.79967C7.23322 7.09256 7.23322 7.56744 6.94033 7.86033C6.64744 8.15322 6.17256 8.15322 5.87967 7.86033L3.58 5.56066L1.28033 7.86033C0.987437 8.15322 0.512563 8.15322 0.21967 7.86033C-0.0732232 7.56744 -0.0732232 7.09256 0.21967 6.79967L2.51934 4.5L0.21967 2.20033C-0.0732232 1.90743 -0.0732232 1.43256 0.21967 1.13967Z"
    fill="#5E6A75" />
</svg>